# xmcd
#
# Track frame offsets: 
#        150
#        23581
#        49632
#        61743
#        77068
#        92272
#        111516
#        128835
#        148777
#        166612
#        182098
#        205230
#        219284
#        245778
#        264790
#        284267
#
# Disc length: 3994 seconds
#
# Revision: 1
# Processed by: cddbd v1.5.2PL0 Copyright (c) Steve Scherf et al.
# Submitted via: ExactAudioCopy v1.3
#
DISCID=d50f9810
DTITLE=???? - ?????[LPCD]-1
DYEAR=2009
DGENRE=Pop
TTITLE0=??? - ????
TTITLE1=??? - ????? [am]2 Version
TTITLE2=?? - ?????????
TTITLE3=??? - ????
TTITLE4=??? - ????
TTITLE5=??? - ??
TTITLE6=??? - ?????
TTITLE7=?? - 3650?
TTITLE8=?? - ??????
TTITLE9=??? - ???
TTITLE10=??? - ??????
TTITLE11=??? - ?????
TTITLE12=??? - ????
TTITLE13=?? - ???????
TTITLE14=?? - ?????????
TTITLE15=??? - ????
EXTD=
EXTT0=
EXTT1=
EXTT2=
EXTT3=
EXTT4=
EXTT5=
EXTT6=
EXTT7=
EXTT8=
EXTT9=
EXTT10=
EXTT11=
EXTT12=
EXTT13=
EXTT14=
EXTT15=
PLAYORDER=
